<mxfile host="app.diagrams.net" agent="Mozilla/5.0 (Windows NT 10.0; Win64; x64) AppleWebKit/537.36 (KHTML, like Gecko) Chrome/130.0.0.0 Safari/537.36" version="24.8.6">
  <diagram name="Page-1" id="E_MwLTzga0tln1gHq9SG">
    <mxGraphModel dx="989" dy="509" grid="1" gridSize="10" guides="1" tooltips="1" connect="1" arrows="1" fold="1" page="1" pageScale="1" pageWidth="850" pageHeight="1100" math="0" shadow="0">
      <root>
        <mxCell id="0" />
        <mxCell id="1" parent="0" />
        <mxCell id="v42XiLBTCnVwB2O2n8-9-1" value="Пользователь" style="shape=umlActor;verticalLabelPosition=bottom;verticalAlign=top;html=1;outlineConnect=0;" vertex="1" parent="1">
          <mxGeometry x="80" y="210" width="30" height="60" as="geometry" />
        </mxCell>
        <mxCell id="v42XiLBTCnVwB2O2n8-9-4" value="UI" style="rounded=0;whiteSpace=wrap;html=1;" vertex="1" parent="1">
          <mxGeometry x="448" y="210" width="120" height="60" as="geometry" />
        </mxCell>
        <mxCell id="v42XiLBTCnVwB2O2n8-9-5" value="Сервер" style="rounded=0;whiteSpace=wrap;html=1;" vertex="1" parent="1">
          <mxGeometry x="448" y="430" width="120" height="60" as="geometry" />
        </mxCell>
        <mxCell id="v42XiLBTCnVwB2O2n8-9-6" value="База данных" style="rounded=0;whiteSpace=wrap;html=1;" vertex="1" parent="1">
          <mxGeometry x="50" y="430" width="120" height="60" as="geometry" />
        </mxCell>
        <mxCell id="v42XiLBTCnVwB2O2n8-9-8" value="" style="endArrow=none;html=1;rounded=0;entryX=0;entryY=0.5;entryDx=0;entryDy=0;" edge="1" parent="1" source="v42XiLBTCnVwB2O2n8-9-1" target="v42XiLBTCnVwB2O2n8-9-4">
          <mxGeometry width="50" height="50" relative="1" as="geometry">
            <mxPoint x="270" y="350" as="sourcePoint" />
            <mxPoint x="320" y="300" as="targetPoint" />
          </mxGeometry>
        </mxCell>
        <mxCell id="v42XiLBTCnVwB2O2n8-9-9" value="1.1 Вводит данных анализа()" style="text;html=1;align=center;verticalAlign=middle;resizable=0;points=[];autosize=1;strokeColor=none;fillColor=none;fontSize=10;" vertex="1" parent="1">
          <mxGeometry x="180" y="242" width="160" height="30" as="geometry" />
        </mxCell>
        <mxCell id="v42XiLBTCnVwB2O2n8-9-10" value="" style="endArrow=block;html=1;rounded=0;endFill=1;" edge="1" parent="1">
          <mxGeometry width="50" height="50" relative="1" as="geometry">
            <mxPoint x="334" y="257.65999999999997" as="sourcePoint" />
            <mxPoint x="360" y="258" as="targetPoint" />
          </mxGeometry>
        </mxCell>
        <mxCell id="v42XiLBTCnVwB2O2n8-9-12" value="" style="endArrow=none;html=1;rounded=0;entryX=0.5;entryY=1;entryDx=0;entryDy=0;exitX=0.5;exitY=0;exitDx=0;exitDy=0;" edge="1" parent="1" source="v42XiLBTCnVwB2O2n8-9-5" target="v42XiLBTCnVwB2O2n8-9-4">
          <mxGeometry width="50" height="50" relative="1" as="geometry">
            <mxPoint x="308" y="380" as="sourcePoint" />
            <mxPoint x="358" y="330" as="targetPoint" />
          </mxGeometry>
        </mxCell>
        <mxCell id="v42XiLBTCnVwB2O2n8-9-13" value="" style="endArrow=none;html=1;rounded=0;exitX=1;exitY=0.5;exitDx=0;exitDy=0;entryX=0;entryY=0.5;entryDx=0;entryDy=0;" edge="1" parent="1" source="v42XiLBTCnVwB2O2n8-9-6" target="v42XiLBTCnVwB2O2n8-9-5">
          <mxGeometry width="50" height="50" relative="1" as="geometry">
            <mxPoint x="240" y="380" as="sourcePoint" />
            <mxPoint x="290" y="330" as="targetPoint" />
          </mxGeometry>
        </mxCell>
        <mxCell id="v42XiLBTCnVwB2O2n8-9-14" value="&lt;font style=&quot;font-size: 10px;&quot;&gt;1.2 Отправка данных анализа()&amp;nbsp;&lt;/font&gt;" style="text;html=1;align=center;verticalAlign=middle;resizable=0;points=[];autosize=1;strokeColor=none;fillColor=none;" vertex="1" parent="1">
          <mxGeometry x="520" y="326" width="170" height="30" as="geometry" />
        </mxCell>
        <mxCell id="v42XiLBTCnVwB2O2n8-9-15" value="1.3 Запрос на сохранение данных()" style="text;html=1;align=center;verticalAlign=middle;resizable=0;points=[];autosize=1;strokeColor=none;fillColor=none;fontSize=10;" vertex="1" parent="1">
          <mxGeometry x="226" y="460" width="190" height="30" as="geometry" />
        </mxCell>
        <mxCell id="v42XiLBTCnVwB2O2n8-9-16" value="&lt;font style=&quot;font-size: 10px;&quot;&gt;1.4 Подтверждение сохранения()&lt;/font&gt;" style="text;html=1;align=center;verticalAlign=middle;resizable=0;points=[];autosize=1;strokeColor=none;fillColor=none;" vertex="1" parent="1">
          <mxGeometry x="185" y="430" width="180" height="30" as="geometry" />
        </mxCell>
        <mxCell id="v42XiLBTCnVwB2O2n8-9-17" value="&lt;font style=&quot;font-size: 10px;&quot;&gt;1.5 Подтверждение успешного&lt;br&gt;&amp;nbsp; &amp;nbsp; &amp;nbsp; сохранения или&lt;br&gt;&lt;/font&gt;&lt;span style=&quot;background-color: initial; text-align: center; font-size: 10px;&quot;&gt;&amp;nbsp; &amp;nbsp; &amp;nbsp; сообщение об ошибке()&lt;/span&gt;" style="text;html=1;align=left;verticalAlign=middle;resizable=0;points=[];autosize=1;strokeColor=none;fillColor=none;" vertex="1" parent="1">
          <mxGeometry x="330" y="316" width="170" height="60" as="geometry" />
        </mxCell>
        <mxCell id="v42XiLBTCnVwB2O2n8-9-18" value="&lt;font style=&quot;font-size: 10px;&quot;&gt;1.6 Отображение результата операции()&lt;/font&gt;" style="text;html=1;align=center;verticalAlign=middle;resizable=0;points=[];autosize=1;strokeColor=none;fillColor=none;" vertex="1" parent="1">
          <mxGeometry x="200" y="210" width="210" height="30" as="geometry" />
        </mxCell>
        <mxCell id="v42XiLBTCnVwB2O2n8-9-19" value="" style="endArrow=block;html=1;rounded=0;endFill=1;" edge="1" parent="1">
          <mxGeometry width="50" height="50" relative="1" as="geometry">
            <mxPoint x="522" y="324.65999999999997" as="sourcePoint" />
            <mxPoint x="522" y="350" as="targetPoint" />
          </mxGeometry>
        </mxCell>
        <mxCell id="v42XiLBTCnVwB2O2n8-9-20" value="" style="endArrow=block;html=1;rounded=0;endFill=1;" edge="1" parent="1">
          <mxGeometry width="50" height="50" relative="1" as="geometry">
            <mxPoint x="230.65999999999997" y="474.66" as="sourcePoint" />
            <mxPoint x="206" y="474.66" as="targetPoint" />
          </mxGeometry>
        </mxCell>
        <mxCell id="v42XiLBTCnVwB2O2n8-9-21" value="" style="endArrow=open;html=1;rounded=0;endFill=0;dashed=1;" edge="1" parent="1">
          <mxGeometry width="50" height="50" relative="1" as="geometry">
            <mxPoint x="362.99999999999994" y="445.66" as="sourcePoint" />
            <mxPoint x="388.34" y="446" as="targetPoint" />
          </mxGeometry>
        </mxCell>
        <mxCell id="v42XiLBTCnVwB2O2n8-9-22" value="" style="endArrow=open;html=1;rounded=0;endFill=0;dashed=1;" edge="1" parent="1">
          <mxGeometry width="50" height="50" relative="1" as="geometry">
            <mxPoint x="489.99999999999994" y="376" as="sourcePoint" />
            <mxPoint x="490" y="340" as="targetPoint" />
          </mxGeometry>
        </mxCell>
        <mxCell id="v42XiLBTCnVwB2O2n8-9-23" value="" style="endArrow=open;html=1;rounded=0;endFill=0;dashed=1;" edge="1" parent="1">
          <mxGeometry width="50" height="50" relative="1" as="geometry">
            <mxPoint x="203.99999999999994" y="224.66" as="sourcePoint" />
            <mxPoint x="180" y="225" as="targetPoint" />
          </mxGeometry>
        </mxCell>
      </root>
    </mxGraphModel>
  </diagram>
</mxfile>
